<svg xmlns="http://www.w3.org/2000/svg" width="20" height="10"><style>.a{stop-color:#fff;stop-opacity:0;}.b{fill:#ececec;stroke-linejoin:round;stroke-width:0.1;stroke:#858585;}.c{stroke-linejoin:round;stroke-width:0.1;stroke:#e1e1e1;}.d{fill:#b8b8bb;stroke-linejoin:round;stroke-width:0.05;stroke:#e1e1e1;}.e{fill:#757577;stroke-linejoin:round;stroke-width:0.05;stroke:#e1e1e1;}.f{fill:#3f3f3f;stroke-linejoin:round;stroke-width:0.05;stroke:#e1e1e1;}.g{-inkscape-font-specification:Arial;fill:#e1e1e1;font-family:Arial;font-size:2px;letter-spacing:0px;line-height:100%;stroke-linejoin:round;word-spacing:0px;}.h{-inkscape-font-specification:Arial;font-family:Arial;font-size:2px;letter-spacing:0px;line-height:100%;stroke-linejoin:round;word-spacing:0px;}.i{fill:#8ca5ac;stroke-linejoin:round;stroke-width:0.1;stroke:#858585;}</style><defs><linearGradient><stop offset="0" stop-color="#fff"/><stop offset="1" stop-color="#000"/></linearGradient><linearGradient><stop offset="0" class="a"/><stop offset="0.66666669" style="stop-color:#fff;stop-opacity:0.8"/><stop offset="1" class="a"/></linearGradient><linearGradient><stop offset="0" stop-color="#bababa"/><stop offset="1" stop-color="#6f6f6f"/></linearGradient><linearGradient><stop offset="0" stop-color="#fffc03"/><stop offset="1" stop-color="#e4a700"/></linearGradient><linearGradient xlink:href="#linearGradient3805" x1="11.5" x2="11.5" y2="2" gradientUnits="userSpaceOnUse" gradientTransform="matrix(1,0,0,1.25,0,1042.3622)"/><linearGradient xlink:href="#linearGradient3837" x1="2" y1="5" x2="3.5" y2="3.5" gradientUnits="userSpaceOnUse"/><linearGradient xlink:href="#linearGradient3857" x1="4.5" y1="5" x2="4.5" y2="3.5" gradientUnits="userSpaceOnUse"/><radialGradient xlink:href="#linearGradient3887" cx="4.6" cy="1047.2" fx="4.5691428" fy="1047.2306" r="0.6" gradientTransform="matrix(0.62915391,0,0,0.70333399,1.730267,310.65464)" gradientUnits="userSpaceOnUse"/></defs><g transform="translate(0 -1042.3622)"><path d="m6 1048.4 1.5 0c0 0 0-0.5 0.5-0.5 0.5 0 0.5 0.5 0.5 0.5 0 0 0-0.5 0.5-0.5 0.5 0 0.5 0.5 0.5 0.5l0 3.5-3.5 0z" class="b"/><rect width="18" height="2.5" x="0.5" y="1042.4" ry="0.5" rx="0.5" style="fill:url(#linearGradient3811);stroke-linejoin:round;stroke-width:0.1;stroke:#fffc03"/><path d="M1 1052.4C1 1052.4 0.5 1052.4 0.5 1051.9l0-7.5 18 0 0 7c0 0 0 0.5-0.5 0.5l-1 0c0 0-0.5 0-0.5-0.5l0-2.5C16.5 1048.4 16 1048.4 16 1048.4L9.5 1048.4 6.5 1048.4C6 1048.4 6 1048.9 6 1048.9l0 3C6 1052.4 5.5 1052.4 5.5 1052.4z" style="fill:#f3f3f3;stroke-linejoin:round;stroke-width:0.1;stroke:#858585"/><rect width="4.5" height="3" x="1" y="1048.9" rx="0.5" ry="0.5" style="fill:#e1e1e1;stroke-linejoin:round;stroke-width:0.1;stroke:#858585"/><path d="m7.5 1048.4c0 0 0-0.5 0.5-0.5 0.5 0 0.5 0.5 0.5 0.5 0 0 0-0.5 0.5-0.5 0.5 0 0.5 0.5 0.5 0.5l0 3.5-2 0" class="b"/><path d="m4 1047.4c0 0 0.1-0.5 0.6-0.7 0.5-0.1 0.4 0.4 0.4 0.4 0 0-0.1 0.5-0.6 0.7-0.5 0.1-0.4-0.4-0.4-0.4z" style="fill:url(#radialGradient3893);stroke-linejoin:round;stroke-width:0.2;stroke:#f00"/><rect width="3.5" height="1.5" x="14.7" y="1042.7" rx="0.5" ry="0.5" style="fill:#fff;stroke-linejoin:round"/><path d="m3.5 8a1 1 0 1 1-2 0 1 1 0 1 1 2 0z" transform="translate(-0.1 1042.3622)" style="fill:#3f3f3f;stroke-linejoin:round"/><g transform="matrix(1 0 0 -1 -3.2218135 2104.439)" class="c"><path d="M4.5 7.3C4.5 7.4 4.4 7.5 4.3 7.5 4.1 7.5 4 7.4 4 7.3 4 7.1 4.1 7 4.3 7 4.4 7 4.5 7.1 4.5 7.3z" class="d"/><path d="M4.5 7.3C4.5 7.4 4.4 7.5 4.3 7.5 4.1 7.5 4 7.4 4 7.3 4 7.1 4.1 7 4.3 7 4.4 7 4.5 7.1 4.5 7.3z" class="e"/><path d="M4.5 7.3C4.5 7.4 4.4 7.5 4.3 7.5 4.1 7.5 4 7.4 4 7.3 4 7.1 4.1 7 4.3 7 4.4 7 4.5 7.1 4.5 7.3z" class="f"/></g><text x="1.7" y="1050.7" class="g"><tspan x="1.7" y="1050.7"> &gt;</tspan></text><text x="-3.1" y="1051.2" transform="scale(-1 1)" class="g"><tspan x="-3.1" y="1051.2"> &gt;</tspan></text><text x="16" y="1044" class="h"><tspan x="16" y="1044"> 3</tspan></text><text x="6.9" y="1050.5" class="h"><tspan x="6.9" y="1050.5"> [5]</tspan></text><text x="10.4" y="1047.4" style="-inkscape-font-specification:Arial;font-family:Arial;font-size:3px;letter-spacing:0px;line-height:100%;stroke-linejoin:round;word-spacing:0px"><tspan x="10.4" y="1047.4"> =</tspan></text><g transform="matrix(1 0 0 -1 7.0785046 2100.3989)" class="c"><path d="M4.5 7.3C4.5 7.4 4.4 7.5 4.3 7.5 4.1 7.5 4 7.4 4 7.3 4 7.1 4.1 7 4.3 7 4.4 7 4.5 7.1 4.5 7.3z" class="d"/><path d="M4.5 7.3C4.5 7.4 4.4 7.5 4.3 7.5 4.1 7.5 4 7.4 4 7.3 4 7.1 4.1 7 4.3 7 4.4 7 4.5 7.1 4.5 7.3z" class="e"/><path d="M4.5 7.3C4.5 7.4 4.4 7.5 4.3 7.5 4.1 7.5 4 7.4 4 7.3 4 7.1 4.1 7 4.3 7 4.4 7 4.5 7.1 4.5 7.3z" class="f"/></g><path d="m0.3 1046.6 0.7 0c0 0 0.7 0 0.7 0.7 0 0.7-0.7 0.7-0.7 0.7l-0.7 0z" class="i"/><path d="m18.8 1046.6-0.7 0c0 0-0.7 0-0.7 0.7 0 0.7 0.7 0.7 0.7 0.7l0.7 0z" class="i"/><rect width="0.5" height="0.5" x="8.5" y="1046.4" style="fill:#ff0101;stroke-linejoin:round;stroke-width:0.1;stroke:#000"/></g></svg>
